<svg width="87" height="87" viewBox="0 0 87 87" fill="none" xmlns="http://www.w3.org/2000/svg">
<path d="M10.785 43.14H14.38M43.14 10.785V14.38M71.9 43.14H75.495M20.132 20.132L22.6485 22.6485M66.148 20.132L63.6315 22.6485" stroke="#364F6B" stroke-width="7.19" stroke-linecap="round" stroke-linejoin="round"/>
<path d="M32.355 57.52C29.3369 55.2564 27.1075 52.1006 25.9826 48.4996C24.8577 44.8985 24.8944 41.0348 26.0874 37.4558C27.2804 33.8768 29.5693 30.7638 32.6298 28.5579C35.6904 26.352 39.3674 25.165 43.14 25.165C46.9126 25.165 50.5896 26.352 53.6502 28.5579C56.7107 30.7638 58.9996 33.8768 60.1926 37.4558C61.3856 41.0348 61.4223 44.8985 60.2974 48.4996C59.1725 52.1006 56.9431 55.2564 53.925 57.52C52.5214 58.9094 51.4646 60.6097 50.84 62.4833C50.2155 64.357 50.0408 66.3513 50.33 68.305C50.33 70.2119 49.5725 72.0407 48.2241 73.3891C46.8757 74.7375 45.0469 75.495 43.14 75.495C41.2331 75.495 39.4043 74.7375 38.0559 73.3891C36.7075 72.0407 35.95 70.2119 35.95 68.305C36.2392 66.3513 36.0645 64.357 35.44 62.4833C34.8154 60.6097 33.7586 58.9094 32.355 57.52" stroke="#364F6B" stroke-width="7.19" stroke-linecap="round" stroke-linejoin="round"/>
<path d="M34.8715 61.115H51.4085" stroke="#364F6B" stroke-width="7.19" stroke-linecap="round" stroke-linejoin="round"/>
</svg>
