<svg width="34" height="28" viewBox="0 0 36 32" fill="none" xmlns="http://www.w3.org/2000/svg">
<g filter="url(#filter0_d_11_70)">
<path d="M27.3333 2.66669H8.66667C7.60581 2.66669 6.58839 3.08811 5.83824 3.83826C5.0881 4.58841 4.66667 5.60582 4.66667 6.66669V25.3334C4.66667 26.3942 5.0881 27.4116 5.83824 28.1618C6.58839 28.9119 7.60581 29.3334 8.66667 29.3334H27.3333C28.3942 29.3334 29.4116 28.9119 30.1618 28.1618C30.9119 27.4116 31.3333 26.3942 31.3333 25.3334V6.66669C31.3333 5.60582 30.9119 4.58841 30.1618 3.83826C29.4116 3.08811 28.3942 2.66669 27.3333 2.66669ZM23.4533 5.33335L18.12 10.6667H12.5467L17.88 5.33335H23.4533ZM7.33334 6.66669C7.33334 6.31307 7.47381 5.97393 7.72386 5.72388C7.97391 5.47383 8.31305 5.33335 8.66667 5.33335H14.12L8.78667 10.6667H7.33334V6.66669ZM28.6667 25.3334C28.6667 25.687 28.5262 26.0261 28.2761 26.2762C28.0261 26.5262 27.687 26.6667 27.3333 26.6667H8.66667C8.31305 26.6667 7.97391 26.5262 7.72386 26.2762C7.47381 26.0261 7.33334 25.687 7.33334 25.3334V13.3334H28.6667V25.3334ZM28.6667 10.6667H21.88L27.2133 5.33335H27.3333C27.687 5.33335 28.0261 5.47383 28.2761 5.72388C28.5262 5.97393 28.6667 6.31307 28.6667 6.66669V10.6667Z" fill="#364F6B"/>
</g>
<defs>
<filter id="filter0_d_11_70" x="-2" y="0" width="40" height="40" filterUnits="userSpaceOnUse" color-interpolation-filters="sRGB">
<feFlood flood-opacity="0" result="BackgroundImageFix"/>

<feOffset dy="4"/>
<feGaussianBlur stdDeviation="2"/>
<feComposite in2="hardAlpha" operator="out"/>
<feColorMatrix type="matrix" values="0 0 0 0 0 0 0 0 0 0 0 0 0 0 0 0 0 0 0.25 0"/>
<feBlend mode="normal" in="SourceGraphic" in2="effect1_dropShadow_11_70" result="shape"/>
</filter>
</defs>
</svg>
