<svg width="87" height="87" viewBox="0 0 87 87" fill="none" xmlns="http://www.w3.org/2000/svg">
<path d="M75.495 50.33L64.71 39.545H39.545C38.5915 39.545 37.6771 39.1662 37.003 38.492C36.3288 37.8179 35.95 36.9035 35.95 35.95V14.38C35.95 13.4265 36.3288 12.5121 37.003 11.838C37.6771 11.1638 38.5915 10.785 39.545 10.785H71.9C72.8535 10.785 73.7679 11.1638 74.4421 11.838C75.1162 12.5121 75.495 13.4265 75.495 14.38V50.33Z" stroke="#364f6b" stroke-width="7.19" stroke-linecap="round" stroke-linejoin="round"/>
<path d="M50.33 53.925V61.115C50.33 62.0685 49.9512 62.9829 49.277 63.6571C48.6029 64.3312 47.6885 64.71 46.735 64.71H21.57L10.785 75.495V39.545C10.785 38.5915 11.1638 37.6771 11.838 37.003C12.5121 36.3288 13.4265 35.95 14.38 35.95H21.57" stroke="#364f6b" stroke-width="7.19" stroke-linecap="round" stroke-linejoin="round"/>
</svg>
