<svg width="26" height="28" viewBox="0 0 26 28" fill="none" xmlns="http://www.w3.org/2000/svg">
<path d="M8.61332 17.0534C8.42569 16.8686 8.18764 16.7435 7.92909 16.6937C7.67054 16.6438 7.40304 16.6716 7.1602 16.7734C6.99478 16.8333 6.84455 16.9289 6.72013 17.0533C6.59572 17.1777 6.50016 17.3279 6.4402 17.4934C6.35372 17.6961 6.31887 17.9172 6.33876 18.1368C6.35866 18.3563 6.43268 18.5675 6.55421 18.7515C6.67573 18.9354 6.84097 19.0864 7.03512 19.1908C7.22928 19.2952 7.4463 19.3499 7.66676 19.3499C7.88722 19.3499 8.10424 19.2952 8.2984 19.1908C8.49256 19.0864 8.65779 18.9354 8.77932 18.7515C8.90084 18.5675 8.97487 18.3563 8.99476 18.1368C9.01466 17.9172 8.9798 17.6961 8.89332 17.4934C8.82587 17.3317 8.73116 17.1829 8.61332 17.0534ZM19.28 17.0534C19.0222 16.8154 18.6842 16.6832 18.3334 16.6832C17.9825 16.6832 17.6446 16.8154 17.3868 17.0534C17.2689 17.1829 17.1742 17.3318 17.1068 17.4935C17.0027 17.7359 16.9738 18.004 17.0237 18.263C17.0736 18.5221 17.2 18.7602 17.3867 18.9467C17.5162 19.0645 17.6651 19.1592 17.8268 19.2267C17.9863 19.2971 18.1588 19.3335 18.3333 19.3335C18.5077 19.3335 18.6802 19.2971 18.8398 19.2267C19.0013 19.1589 19.1501 19.0643 19.2799 18.9467C19.4665 18.7603 19.593 18.5221 19.6429 18.2631C19.6928 18.0041 19.6639 17.736 19.5599 17.4936C19.4925 17.3319 19.3978 17.183 19.28 17.0534V17.0534ZM22.7459 23.1937C23.6898 22.4413 24.4103 21.4454 24.8296 20.3135C25.2489 19.1815 25.3511 17.9566 25.125 16.7708L23.125 6.10413C22.8383 4.57623 22.0267 3.19657 20.8305 2.20369C19.6343 1.21081 18.1288 0.66714 16.5742 0.666687H9.42578C7.87121 0.667155 6.36568 1.21084 5.1695 2.20373C3.97333 3.19662 3.16171 4.57629 2.87499 6.10418L0.874989 16.7708C0.648966 17.9566 0.751113 19.1816 1.1704 20.3135C1.58969 21.4455 2.3102 22.4414 3.25414 23.1938L1.39066 25.0574C1.26502 25.1807 1.16507 25.3278 1.09657 25.49C1.02808 25.6522 0.992409 25.8264 0.991611 26.0025C0.990814 26.1786 1.02491 26.3531 1.09193 26.516C1.15895 26.6788 1.25756 26.8267 1.38208 26.9513C1.5066 27.0758 1.65455 27.1744 1.81739 27.2414C1.98023 27.3084 2.15473 27.3425 2.33082 27.3417C2.50691 27.3409 2.6811 27.3053 2.84333 27.2368C3.00555 27.1683 3.15261 27.0683 3.27599 26.9427L5.76818 24.4505C6.30947 24.5917 6.86637 24.6644 7.42578 24.6667H18.5742C19.1336 24.6644 19.6905 24.5918 20.2318 24.4505L22.724 26.9427C22.9748 27.189 23.3127 27.3262 23.6642 27.3247C24.0156 27.3231 24.3523 27.1827 24.6008 26.9342C24.8494 26.6856 24.9897 26.349 24.9913 25.9975C24.9929 25.646 24.8556 25.3081 24.6093 25.0574L22.7459 23.1937ZM5.49478 6.59638C5.66717 5.67967 6.15429 4.85195 6.87202 4.25619C7.58974 3.66042 8.493 3.33402 9.42578 3.33335H16.5742C17.507 3.33402 18.4102 3.66042 19.128 4.25619C19.8457 4.85195 20.3328 5.67967 20.5052 6.59638L20.9674 9.06162C19.972 10.1944 18.7464 11.1018 17.3725 11.7235C15.9986 12.3451 14.508 12.6667 13 12.6667C11.492 12.6667 10.0013 12.3451 8.62744 11.7235C7.25354 11.1018 6.02799 10.1944 5.03254 9.06162L5.49478 6.59638ZM21.651 20.5547C21.2764 21.0075 20.8063 21.3719 20.2744 21.6217C19.7425 21.8716 19.1619 22.0008 18.5742 22H7.42578C6.83813 21.9998 6.25775 21.8701 5.72589 21.6203C5.19403 21.3704 4.72375 21.0064 4.34848 20.5542C3.97321 20.1019 3.70217 19.5726 3.55462 19.0038C3.40707 18.435 3.38664 17.8407 3.49478 17.263L4.44286 12.2066C6.83698 14.2258 9.86804 15.3334 13 15.3334C16.1319 15.3334 19.163 14.2258 21.5571 12.2066L22.5052 17.263C22.6143 17.8407 22.5943 18.4354 22.4467 19.0045C22.299 19.5736 22.0273 20.1029 21.651 20.5547V20.5547Z" fill="#364F6B"/>
</svg>
