<svg width="24" height="17" viewBox="0 0 24 17" fill="none" xmlns="http://www.w3.org/2000/svg">
<path d="M16.405 1.64993C16.29 1.64993 16.212 1.66393 16.131 1.68293V1.69593H16.145C16.199 1.79993 16.291 1.87593 16.359 1.96893C16.413 2.07593 16.459 2.18293 16.513 2.28893L16.527 2.27393C16.621 2.20793 16.667 2.10193 16.667 1.94093C16.627 1.89393 16.621 1.84693 16.587 1.80093C16.547 1.73393 16.461 1.70093 16.407 1.64793L16.405 1.64993ZM5.77 14.8439H4.843C4.81693 13.3707 4.72685 11.8993 4.573 10.4339H4.565L3.155 14.8439H2.45L1.05 10.4339H1.04C0.930493 11.9016 0.865464 13.3723 0.845 14.8439H0C0.055 12.8779 0.192 11.0339 0.41 9.31393H1.56L2.895 13.3779H2.903L4.25 9.31393H5.345C5.587 11.3289 5.729 13.1739 5.773 14.8439H5.77ZM9.787 10.7639C9.409 12.8089 8.911 14.2969 8.295 15.2239C7.813 15.9399 7.285 16.2969 6.712 16.2969C6.559 16.2969 6.372 16.2509 6.146 16.1589V15.6649C6.256 15.6819 6.386 15.6909 6.532 15.6909C6.8 15.6909 7.015 15.6159 7.179 15.4689C7.376 15.2889 7.474 15.0869 7.474 14.8639C7.474 14.7089 7.397 14.3939 7.244 13.9199L6.23 10.7639H7.14L7.867 13.1239C8.031 13.6599 8.1 14.0339 8.072 14.2469C8.472 13.1829 8.75 12.0199 8.907 10.7639H9.787ZM22.112 14.8439H19.482V9.31393H20.367V14.1639H22.112V14.8439ZM18.792 14.9789L17.776 14.4789C17.866 14.4029 17.953 14.3209 18.031 14.2289C18.464 13.7229 18.679 12.9709 18.679 11.9759C18.679 10.1459 17.961 9.22993 16.524 9.22993C15.82 9.22993 15.27 9.46193 14.874 9.92693C14.444 10.4349 14.228 11.1829 14.228 12.1719C14.228 13.1439 14.418 13.8579 14.802 14.3119C15.152 14.7219 15.679 14.9269 16.385 14.9269C16.649 14.9269 16.891 14.8939 17.11 14.8289L18.435 15.6009L18.795 14.9789H18.792ZM15.5 13.7369C15.275 13.3769 15.163 12.7969 15.163 12.0009C15.163 10.6079 15.587 9.91093 16.433 9.91093C16.876 9.91093 17.203 10.0779 17.41 10.4109C17.634 10.7729 17.746 11.3469 17.746 12.1339C17.746 13.5379 17.322 14.2419 16.476 14.2419C16.031 14.2419 15.706 14.0749 15.498 13.7419L15.5 13.7369ZM13.842 13.3119C13.842 13.7819 13.67 14.1679 13.326 14.4679C12.982 14.7679 12.523 14.9179 11.942 14.9179C11.399 14.9179 10.878 14.7459 10.369 14.4029L10.606 13.9269C11.044 14.1469 11.439 14.2549 11.796 14.2549C12.128 14.2549 12.389 14.1819 12.579 14.0349C12.674 13.9633 12.7506 13.8703 12.8028 13.7634C12.8549 13.6565 12.881 13.5388 12.879 13.4199C12.879 13.0899 12.649 12.8099 12.231 12.5749C11.843 12.3619 11.068 11.9179 11.068 11.9179C10.646 11.6109 10.436 11.2819 10.436 10.7409C10.436 10.2909 10.593 9.93093 10.906 9.65593C11.221 9.37793 11.626 9.24093 12.126 9.24093C12.638 9.24093 13.106 9.37693 13.526 9.65093L13.313 10.1269C12.9774 9.97951 12.6155 9.90128 12.249 9.89693C11.966 9.89693 11.747 9.96493 11.595 10.1029C11.5179 10.1668 11.4557 10.2469 11.4128 10.3374C11.37 10.4279 11.3475 10.5268 11.347 10.6269C11.347 10.9549 11.581 11.2369 12.013 11.4769C12.406 11.6919 13.2 12.1469 13.2 12.1469C13.633 12.4519 13.848 12.7769 13.848 13.3149L13.842 13.3119ZM23.224 7.45993C22.689 7.44593 22.274 7.49993 21.927 7.64793C21.827 7.68793 21.667 7.68793 21.653 7.81493C21.708 7.86793 21.716 7.95493 21.763 8.02893C21.843 8.16293 21.981 8.34193 22.109 8.43593C22.249 8.54593 22.389 8.65193 22.536 8.74593C22.796 8.90593 23.091 9.00093 23.346 9.16193C23.491 9.25593 23.639 9.37493 23.786 9.47493C23.859 9.52493 23.906 9.61493 24 9.64693V9.62693C23.954 9.56693 23.94 9.47993 23.895 9.41293C23.828 9.34593 23.761 9.28593 23.695 9.21993C23.4987 8.9612 23.2644 8.73363 23 8.54493C22.786 8.39893 22.318 8.19493 22.23 7.94993L22.217 7.93593C22.363 7.92293 22.537 7.86993 22.677 7.82993C22.904 7.76993 23.112 7.78293 23.347 7.72393C23.453 7.69693 23.56 7.66393 23.667 7.62993V7.56993C23.547 7.44993 23.457 7.28693 23.333 7.17493C22.9869 6.8724 22.6178 6.59723 22.229 6.35193C22.019 6.21793 21.753 6.13193 21.532 6.01793C21.452 5.97793 21.318 5.95793 21.272 5.89093C21.152 5.74493 21.082 5.55093 20.997 5.37693C20.8006 4.99602 20.6182 4.6081 20.45 4.21393C20.33 3.95193 20.257 3.69093 20.11 3.45093C19.42 2.31393 18.673 1.62493 17.524 0.950932C17.277 0.810932 16.981 0.750932 16.668 0.676932C16.501 0.668932 16.334 0.656932 16.168 0.649932C16.058 0.602932 15.952 0.475932 15.858 0.414932C15.478 0.174932 14.494 -0.345068 14.214 0.342932C14.034 0.776932 14.481 1.20493 14.636 1.42493C14.751 1.57793 14.896 1.75293 14.976 1.92493C15.023 2.04093 15.036 2.15993 15.083 2.28093C15.189 2.57493 15.29 2.90293 15.43 3.17793C15.503 3.31793 15.583 3.46493 15.677 3.59093C15.731 3.66393 15.823 3.69793 15.844 3.81793C15.75 3.95393 15.744 4.15193 15.69 4.31793C15.45 5.07493 15.544 6.01093 15.884 6.56793C15.991 6.73393 16.246 7.10193 16.587 6.96093C16.887 6.84093 16.821 6.46093 16.907 6.12593C16.927 6.04593 16.914 5.99293 16.955 5.93893V5.95393C17.049 6.14193 17.143 6.32093 17.229 6.50893C17.435 6.83693 17.795 7.17693 18.096 7.40393C18.256 7.52393 18.383 7.73193 18.583 7.80593V7.78593H18.568C18.525 7.72793 18.468 7.69993 18.414 7.65293C18.2872 7.52881 18.1702 7.39508 18.064 7.25293C17.7822 6.86795 17.5324 6.4606 17.317 6.03493C17.207 5.82493 17.115 5.59893 17.027 5.39193C16.987 5.31193 16.987 5.19193 16.92 5.15193C16.82 5.29793 16.673 5.42493 16.6 5.60493C16.473 5.89293 16.46 6.24693 16.412 6.61493C16.385 6.62193 16.398 6.61493 16.385 6.62893C16.171 6.57693 16.098 6.35493 16.018 6.16893C15.818 5.69393 15.785 4.93093 15.958 4.38393C16.005 4.24393 16.205 3.80193 16.125 3.66793C16.083 3.54093 15.951 3.46793 15.878 3.36493C15.7841 3.23087 15.7037 3.08784 15.638 2.93793C15.478 2.56393 15.398 2.14993 15.224 1.77593C15.144 1.60293 15.004 1.42193 14.89 1.26293C14.763 1.08293 14.623 0.955932 14.522 0.742932C14.489 0.669932 14.442 0.548932 14.495 0.468932C14.509 0.414932 14.537 0.393932 14.589 0.378932C14.677 0.306932 14.924 0.400932 15.011 0.440932C15.258 0.540932 15.466 0.634932 15.673 0.774932C15.767 0.840932 15.868 0.967932 15.988 1.00093H16.128C16.342 1.04793 16.583 1.01493 16.783 1.07393C17.138 1.18793 17.458 1.35393 17.745 1.53393C18.6293 2.09885 19.3486 2.88748 19.83 3.81993C19.91 3.97393 19.945 4.11493 20.018 4.27493C20.158 4.60493 20.331 4.93793 20.473 5.25693C20.613 5.57193 20.748 5.89293 20.949 6.15393C21.049 6.29393 21.451 6.36693 21.631 6.43993C21.764 6.49993 21.971 6.55493 22.091 6.62793C22.321 6.76793 22.545 6.92793 22.761 7.08193C22.871 7.15793 23.204 7.32493 23.224 7.45993V7.45993Z" fill="#4479A1"/>
</svg>
