<svg width="24" height="24" viewBox="0 0 24 24" fill="none" xmlns="http://www.w3.org/2000/svg">
<path d="M6.897 0C6.897 0 7.869 0.0969999 8.259 1.068C8.259 1.068 9.328 3.594 10.299 6.023C11.719 9.353 13.519 13.638 14.969 17.101H1.166C0.388 17.101 0 16.615 0 16.615C0.777 17.975 3.012 22.251 3.012 22.251C3.4 22.737 3.789 23.027 4.372 23.027C5.636 23.027 7.58 21.765 7.58 21.765L14.989 17.146C16.401 20.518 17.489 23.126 17.489 23.126H23.999C24.096 23.029 14.672 0.68 14.575 0.582C14.478 0.485 14.283 0 13.603 0H6.897ZM6.607 0.875C6.024 0.875 5.829 1.36 5.732 1.457L0.389 14.089C0.098 14.963 0.292 16.032 1.847 16.032H6.024L9.717 7.191C9.01527 5.43723 8.30259 3.68786 7.579 1.943C7.482 1.652 7.19 0.875 6.607 0.875V0.875Z" fill="#440044"/>
</svg>
