<svg width="24" height="24" viewBox="0 0 24 24" fill="none" xmlns="http://www.w3.org/2000/svg">
<path d="M13.1381 0.0533176C9.6246 -0.279102 6.0635 0.950288 3.49234 3.53409C0.0640988 6.97916 -0.947461 12.1708 0.936619 16.6509C2.8207 21.1311 7.23908 24.0398 12.0991 23.9992C12.4015 24.0025 12.7015 23.9454 12.9815 23.8314C13.2616 23.7174 13.5161 23.5486 13.7302 23.3351C13.9443 23.1215 14.1137 22.8674 14.2284 22.5877C14.3432 22.3079 14.401 22.008 14.3985 21.7056C14.396 21.4033 14.3332 21.1044 14.2139 20.8266C14.0945 20.5487 13.921 20.2975 13.7034 20.0875C13.4858 19.8775 13.2285 19.713 12.9466 19.6036C12.6647 19.4942 12.3638 19.4421 12.0615 19.4504C9.03318 19.4756 6.30429 17.6798 5.13028 14.8881C3.95628 12.0965 4.5811 8.88997 6.7173 6.74329C8.85349 4.5966 12.0563 3.95594 14.8536 5.11626C16.9253 5.97555 18.4444 7.69551 19.0946 9.7573H12.0506C11.4472 9.7573 10.8686 9.99699 10.4419 10.4236C10.0152 10.8503 9.77555 11.429 9.77555 12.0323C9.77555 12.6357 10.0152 13.2144 10.4419 13.6411C10.8686 14.0677 11.4472 14.3074 12.0506 14.3074H21.7255C22.3274 14.3073 22.9047 14.0686 23.331 13.6437C23.7574 13.2187 23.9979 12.6421 23.9999 12.0402C24.0166 7.18009 21.0864 2.77623 16.5971 0.914108C15.4747 0.448588 14.3093 0.164128 13.1381 0.0533076V0.0533176Z" fill="#4581F6"/>
</svg>
