<svg width="19" height="24" viewBox="0 0 19 24" fill="none" xmlns="http://www.w3.org/2000/svg">
<path d="M0 0V15H8.25C10.2391 15 12.1468 14.2098 13.5533 12.8033C14.9598 11.3968 15.75 9.48912 15.75 7.5C15.75 5.51088 14.9598 3.60322 13.5533 2.1967C12.1468 0.790176 10.2391 0 8.25 0L0 0ZM17.016 11.705C15.445 14.966 12.106 17.222 8.25 17.222H0V24H11.25C12.6747 23.9998 14.0699 23.5938 15.2723 22.8296C16.4746 22.0653 17.4345 20.9744 18.0394 19.6845C18.6443 18.3946 18.8693 16.9591 18.6881 15.5459C18.5069 14.1328 17.9269 12.8005 17.016 11.705Z" fill="#0a9100"/>
</svg>
